<mxfile host="app.diagrams.net" agent="Mozilla/5.0 (Macintosh; Intel Mac OS X 10_15_7) AppleWebKit/537.36 (KHTML, like Gecko) Chrome/138.0.0.0 Safari/537.36" version="26.2.13">
  <diagram name="第 1 页" id="qdJlf3L8eX9D0mufchD3">
    <mxGraphModel dx="948" dy="620" grid="1" gridSize="10" guides="1" tooltips="1" connect="1" arrows="1" fold="1" page="1" pageScale="1" pageWidth="827" pageHeight="1169" math="0" shadow="0">
      <root>
        <mxCell id="0" />
        <mxCell id="1" parent="0" />
        <mxCell id="k3nrlV4sW1oi4azfUto3-25" value="" style="rounded=0;whiteSpace=wrap;html=1;fillColor=#E6E6E6;" vertex="1" parent="1">
          <mxGeometry x="212" y="140" width="750" height="530" as="geometry" />
        </mxCell>
        <mxCell id="k3nrlV4sW1oi4azfUto3-33" style="edgeStyle=orthogonalEdgeStyle;rounded=0;orthogonalLoop=1;jettySize=auto;html=1;" edge="1" parent="1" target="k3nrlV4sW1oi4azfUto3-16">
          <mxGeometry relative="1" as="geometry">
            <mxPoint x="421" y="480" as="sourcePoint" />
          </mxGeometry>
        </mxCell>
        <mxCell id="k3nrlV4sW1oi4azfUto3-34" style="edgeStyle=orthogonalEdgeStyle;rounded=0;orthogonalLoop=1;jettySize=auto;html=1;exitX=0.75;exitY=1;exitDx=0;exitDy=0;" edge="1" parent="1" source="k3nrlV4sW1oi4azfUto3-7" target="k3nrlV4sW1oi4azfUto3-20">
          <mxGeometry relative="1" as="geometry" />
        </mxCell>
        <mxCell id="k3nrlV4sW1oi4azfUto3-7" value="" style="rounded=1;whiteSpace=wrap;html=1;fillColor=#EA6B66;" vertex="1" parent="1">
          <mxGeometry x="254" y="360" width="666" height="120" as="geometry" />
        </mxCell>
        <mxCell id="k3nrlV4sW1oi4azfUto3-28" style="edgeStyle=orthogonalEdgeStyle;rounded=0;orthogonalLoop=1;jettySize=auto;html=1;exitX=0.5;exitY=1;exitDx=0;exitDy=0;entryX=0.23;entryY=-0.017;entryDx=0;entryDy=0;entryPerimeter=0;" edge="1" parent="1" source="k3nrlV4sW1oi4azfUto3-3" target="k3nrlV4sW1oi4azfUto3-7">
          <mxGeometry relative="1" as="geometry" />
        </mxCell>
        <mxCell id="k3nrlV4sW1oi4azfUto3-3" value="" style="rounded=1;whiteSpace=wrap;html=1;fillColor=#D5E8D4;" vertex="1" parent="1">
          <mxGeometry x="254" y="200" width="320" height="120" as="geometry" />
        </mxCell>
        <mxCell id="k3nrlV4sW1oi4azfUto3-2" value="Feature 定义" style="rounded=1;whiteSpace=wrap;html=1;fillColor=#FFFFFF;" vertex="1" parent="1">
          <mxGeometry x="274" y="240" width="120" height="60" as="geometry" />
        </mxCell>
        <mxCell id="k3nrlV4sW1oi4azfUto3-4" value="用户管理" style="rounded=1;whiteSpace=wrap;html=1;" vertex="1" parent="1">
          <mxGeometry x="428" y="400" width="120" height="60" as="geometry" />
        </mxCell>
        <mxCell id="k3nrlV4sW1oi4azfUto3-5" value="BDD 测试" style="text;html=1;align=center;verticalAlign=middle;whiteSpace=wrap;rounded=0;" vertex="1" parent="1">
          <mxGeometry x="379" y="200" width="70" height="30" as="geometry" />
        </mxCell>
        <mxCell id="k3nrlV4sW1oi4azfUto3-6" value="Steps 实现" style="rounded=1;whiteSpace=wrap;html=1;" vertex="1" parent="1">
          <mxGeometry x="428" y="240" width="120" height="60" as="geometry" />
        </mxCell>
        <mxCell id="k3nrlV4sW1oi4azfUto3-8" value="Framework" style="text;html=1;align=center;verticalAlign=middle;whiteSpace=wrap;rounded=0;" vertex="1" parent="1">
          <mxGeometry x="552" y="360" width="70" height="30" as="geometry" />
        </mxCell>
        <mxCell id="k3nrlV4sW1oi4azfUto3-9" value="API 层" style="rounded=1;whiteSpace=wrap;html=1;" vertex="1" parent="1">
          <mxGeometry x="274" y="400" width="120" height="60" as="geometry" />
        </mxCell>
        <mxCell id="k3nrlV4sW1oi4azfUto3-10" value="" style="rounded=1;whiteSpace=wrap;html=1;fillColor=#D5E8D4;" vertex="1" parent="1">
          <mxGeometry x="600" y="200" width="320" height="120" as="geometry" />
        </mxCell>
        <mxCell id="k3nrlV4sW1oi4azfUto3-11" value="机器人管理" style="rounded=1;whiteSpace=wrap;html=1;" vertex="1" parent="1">
          <mxGeometry x="620" y="240" width="120" height="60" as="geometry" />
        </mxCell>
        <mxCell id="k3nrlV4sW1oi4azfUto3-12" value="压力测试" style="text;html=1;align=center;verticalAlign=middle;whiteSpace=wrap;rounded=0;" vertex="1" parent="1">
          <mxGeometry x="725" y="200" width="70" height="30" as="geometry" />
        </mxCell>
        <mxCell id="k3nrlV4sW1oi4azfUto3-13" value="会话操作" style="rounded=1;whiteSpace=wrap;html=1;" vertex="1" parent="1">
          <mxGeometry x="774" y="240" width="120" height="60" as="geometry" />
        </mxCell>
        <mxCell id="k3nrlV4sW1oi4azfUto3-14" value="插件管理" style="rounded=1;whiteSpace=wrap;html=1;" vertex="1" parent="1">
          <mxGeometry x="620" y="400" width="120" height="60" as="geometry" />
        </mxCell>
        <mxCell id="k3nrlV4sW1oi4azfUto3-15" value="配置管理" style="rounded=1;whiteSpace=wrap;html=1;" vertex="1" parent="1">
          <mxGeometry x="774" y="400" width="120" height="60" as="geometry" />
        </mxCell>
        <mxCell id="k3nrlV4sW1oi4azfUto3-16" value="" style="rounded=1;whiteSpace=wrap;html=1;fillColor=#FFD966;" vertex="1" parent="1">
          <mxGeometry x="254" y="525" width="320" height="120" as="geometry" />
        </mxCell>
        <mxCell id="k3nrlV4sW1oi4azfUto3-17" value="HTTP 封装" style="rounded=1;whiteSpace=wrap;html=1;" vertex="1" parent="1">
          <mxGeometry x="274" y="565" width="120" height="60" as="geometry" />
        </mxCell>
        <mxCell id="k3nrlV4sW1oi4azfUto3-18" value="网络通信" style="text;html=1;align=center;verticalAlign=middle;whiteSpace=wrap;rounded=0;" vertex="1" parent="1">
          <mxGeometry x="379" y="525" width="70" height="30" as="geometry" />
        </mxCell>
        <mxCell id="k3nrlV4sW1oi4azfUto3-19" value="Socket IO 封装" style="rounded=1;whiteSpace=wrap;html=1;" vertex="1" parent="1">
          <mxGeometry x="428" y="565" width="120" height="60" as="geometry" />
        </mxCell>
        <mxCell id="k3nrlV4sW1oi4azfUto3-20" value="" style="rounded=1;whiteSpace=wrap;html=1;fillColor=#FFD966;" vertex="1" parent="1">
          <mxGeometry x="600" y="525" width="320" height="120" as="geometry" />
        </mxCell>
        <mxCell id="k3nrlV4sW1oi4azfUto3-21" value="日志处理" style="rounded=1;whiteSpace=wrap;html=1;" vertex="1" parent="1">
          <mxGeometry x="620" y="565" width="120" height="60" as="geometry" />
        </mxCell>
        <mxCell id="k3nrlV4sW1oi4azfUto3-22" value="通用工具" style="text;html=1;align=center;verticalAlign=middle;whiteSpace=wrap;rounded=0;" vertex="1" parent="1">
          <mxGeometry x="725" y="525" width="70" height="30" as="geometry" />
        </mxCell>
        <mxCell id="k3nrlV4sW1oi4azfUto3-23" value="错误处理" style="rounded=1;whiteSpace=wrap;html=1;" vertex="1" parent="1">
          <mxGeometry x="774" y="565" width="120" height="60" as="geometry" />
        </mxCell>
        <mxCell id="k3nrlV4sW1oi4azfUto3-26" value="zhongkui 自动化测试系统" style="text;html=1;align=center;verticalAlign=middle;whiteSpace=wrap;rounded=0;" vertex="1" parent="1">
          <mxGeometry x="510.5" y="150" width="153" height="30" as="geometry" />
        </mxCell>
        <mxCell id="k3nrlV4sW1oi4azfUto3-31" style="edgeStyle=orthogonalEdgeStyle;rounded=0;orthogonalLoop=1;jettySize=auto;html=1;entryX=0.761;entryY=0.025;entryDx=0;entryDy=0;entryPerimeter=0;" edge="1" parent="1" source="k3nrlV4sW1oi4azfUto3-10" target="k3nrlV4sW1oi4azfUto3-7">
          <mxGeometry relative="1" as="geometry" />
        </mxCell>
      </root>
    </mxGraphModel>
  </diagram>
</mxfile>
